<?xml version="1.0" encoding="UTF-8" standalone="no"?>
<!-- Generator: Adobe Illustrator 19.1.0, SVG Export Plug-In . SVG Version: 6.00 Build 0)  -->

<svg
   version="1.1"
   id="Capa_1"
   x="0px"
   y="0px"
   viewBox="0 0 23.999998 24"
   xml:space="preserve"
   sodipodi:docname="icon.svg"
   width="23.999998"
   height="24"
   inkscape:version="1.1.1 (1:1.1+202109281949+c3084ef5ed)"
   inkscape:export-filename="/home/schica/proyecto-autenticacion-cerebral/neuropy3/neuropy3/gui/icons/icon.png"
   inkscape:export-xdpi="96"
   inkscape:export-ydpi="96"
   xmlns:inkscape="http://www.inkscape.org/namespaces/inkscape"
   xmlns:sodipodi="http://sodipodi.sourceforge.net/DTD/sodipodi-0.dtd"
   xmlns="http://www.w3.org/2000/svg"
   xmlns:svg="http://www.w3.org/2000/svg"><defs
   id="defs83">
	
	
	
	
	
	
	
	
	
</defs><sodipodi:namedview
   id="namedview81"
   pagecolor="#505050"
   bordercolor="#eeeeee"
   borderopacity="1"
   inkscape:pageshadow="0"
   inkscape:pageopacity="0"
   inkscape:pagecheckerboard="0"
   showgrid="false"
   inkscape:snap-global="false"
   inkscape:zoom="26.125"
   inkscape:cx="11.69378"
   inkscape:cy="13.569378"
   inkscape:window-width="1920"
   inkscape:window-height="1051"
   inkscape:window-x="1920"
   inkscape:window-y="29"
   inkscape:window-maximized="1"
   inkscape:current-layer="Capa_1" />
















<g
   id="g50"
   transform="matrix(0.04696673,0,0,0.04696673,0.08547903,-1.6828175)">
</g><g
   id="g52"
   transform="matrix(0.04696673,0,0,0.04696673,0.08547903,-1.6828175)">
</g><g
   id="g54"
   transform="matrix(0.04696673,0,0,0.04696673,0.08547903,-1.6828175)">
</g><g
   id="g56"
   transform="matrix(0.04696673,0,0,0.04696673,0.08547903,-1.6828175)">
</g><g
   id="g58"
   transform="matrix(0.04696673,0,0,0.04696673,0.08547903,-1.6828175)">
</g><g
   id="g60"
   transform="matrix(0.04696673,0,0,0.04696673,0.08547903,-1.6828175)">
</g><g
   id="g62"
   transform="matrix(0.04696673,0,0,0.04696673,0.08547903,-1.6828175)">
</g><g
   id="g64"
   transform="matrix(0.04696673,0,0,0.04696673,0.08547903,-1.6828175)">
</g><g
   id="g66"
   transform="matrix(0.04696673,0,0,0.04696673,0.08547903,-1.6828175)">
</g><g
   id="g68"
   transform="matrix(0.04696673,0,0,0.04696673,0.08547903,-1.6828175)">
</g><g
   id="g70"
   transform="matrix(0.04696673,0,0,0.04696673,0.08547903,-1.6828175)">
</g><g
   id="g72"
   transform="matrix(0.04696673,0,0,0.04696673,0.08547903,-1.6828175)">
</g><g
   id="g74"
   transform="matrix(0.04696673,0,0,0.04696673,0.08547903,-1.6828175)">
</g><g
   id="g76"
   transform="matrix(0.04696673,0,0,0.04696673,0.08547903,-1.6828175)">
</g><g
   id="g78"
   transform="matrix(0.04696673,0,0,0.04696673,0.08547903,-1.6828175)">
</g><g
   id="g1495"
   transform="matrix(0.04696673,0,0,0.04696673,-21.769363,-13.43032)"><g
     id="g4"
     transform="matrix(0.99,0,0,0.99,465.56602,288.01392)">
		<path
   style="fill:#ffe1b2"
   d="M 256,33.085 C 245.078,13.38 224.079,0 200,0 176.219,0 154.43,13.293 143.406,34.184 115.711,41.602 96,66.977 96,96 c 0,0.059 0,0.113 0,0.172 -9.977,7.512 -16,19.301 -16,31.828 0,1.316 0.078,2.637 0.234,3.992 C 60.211,145.266 48,167.758 48,192 c 0,14.07 4.039,27.543 11.719,39.262 C 57.273,236.512 56,242.207 56,248 c 0,2.738 0.281,5.445 0.828,8.098 C 36.672,267.308 24,288.539 24,312 24,339.973 42.305,364.34 68.109,372.785 65.398,378.828 64,385.324 64,392 64,413.098 77.805,431.508 97.539,437.727 103.891,466.746 129.828,488 160,488 c 4.617,0 9.227,-0.512 13.766,-1.527 C 181.992,502 198.141,512 216,512 c 16.687,0 31.396,-8.567 40,-21.523 z"
   id="path2" />
	</g><g
     id="g26"
     transform="matrix(0.99,0,0,0.99,465.56602,288.01392)">
		<path
   style="fill:#fdc88e"
   d="m 488,312 c 0,-23.461 -12.672,-44.691 -32.828,-55.902 0.547,-2.652 0.828,-5.359 0.828,-8.098 0,-5.793 -1.273,-11.488 -3.719,-16.738 C 459.961,219.543 464,206.07 464,192 464,167.758 451.789,145.266 431.766,131.992 431.922,130.637 432,129.316 432,128 432,115.473 425.977,103.684 416,96.172 416,96.113 416,96.059 416,96 416,66.977 396.289,41.602 368.594,34.184 357.57,13.293 335.781,0 312,0 287.92,0 266.922,13.38 256,33.085 v 457.391 c 8.604,12.957 23.313,21.524 40,21.524 17.859,0 34.008,-10 42.234,-25.527 4.539,1.015 9.149,1.527 13.766,1.527 30.172,0 56.109,-21.254 62.461,-50.273 C 434.195,431.508 448,413.097 448,392 c 0,-6.676 -1.398,-13.172 -4.109,-19.215 C 469.695,364.34 488,339.973 488,312 Z"
   id="path24" />
	</g></g><path
   d="m 22.872797,14.630137 c 0,-1.099069 -0.596853,-2.093025 -1.544924,-2.613323 0.0279,-0.128454 0.04199,-0.259632 0.04199,-0.392548 0,-0.272736 -0.06101,-0.541104 -0.177957,-0.787914 0.362959,-0.549135 0.553691,-1.1813541 0.553691,-1.8422229 0,-1.1353268 -0.574591,-2.1884618 -1.515429,-2.8067318 0.0084,-0.067726 0.01249,-0.1334795 0.01249,-0.1991389 0,-0.5850176 -0.283162,-1.1352798 -0.751561,-1.4832094 4.7e-5,-0.00658 9.4e-5,-0.013104 9.4e-5,-0.019726 0,-1.3559295 -0.923085,-2.540994 -2.219131,-2.8832406 C 16.760124,0.62329572 15.741838,2.425e-7 14.630136,2.425e-7 13.493118,2.425e-7 12.503013,0.63978104 11.999999,1.5780354 11.496985,0.63978104 10.50688,2.425e-7 9.3698622,2.425e-7 8.2581597,2.425e-7 7.239874,0.62329572 6.7279367,1.6020824 5.4318898,1.944329 4.5088057,3.1293935 4.5088057,4.485323 c 0,0.00662 4.69e-5,0.013151 9.39e-5,0.019726 C 4.0405004,4.8529786 3.757338,5.4032408 3.757338,5.9882584 c 0,0.065659 0.00409,0.1313659 0.012493,0.1991389 -0.9408375,0.61827 -1.5154285,1.671405 -1.5154285,2.8067318 0,0.6608688 0.1907319,1.2930879 0.5536908,1.8422229 -0.1169472,0.24681 -0.1779569,0.515178 -0.1779569,0.787914 0,0.132916 0.014043,0.264094 0.041988,0.392548 -0.9480704,0.520298 -1.5449236,1.514254 -1.5449236,2.613323 0,1.312532 0.8647045,2.454622 2.0806731,2.840548 -0.1331037,0.28753 -0.2020039,0.597651 -0.2020039,0.91679 0,0.985221 0.6476242,1.84429 1.5715538,2.12919 0.2909119,1.359076 1.5029823,2.356133 2.9137689,2.356133 0.2209315,0 0.4415342,-0.02522 0.6589902,-0.07519 C 8.5297213,23.528313 9.2853691,24 10.12133,24 10.909526,24 11.603036,23.588759 11.999999,22.969925 12.396962,23.588759 13.090473,24 13.878668,24 c 0.835961,0 1.591609,-0.471687 1.971147,-1.202396 0.217456,0.04997 0.438059,0.07519 0.65899,0.07519 1.410787,0 2.622857,-0.997057 2.913769,-2.356133 0.92393,-0.2849 1.571554,-1.143969 1.571554,-2.12919 0,-0.319139 -0.0689,-0.62926 -0.202004,-0.91679 1.215969,-0.385926 2.080673,-1.528016 2.080673,-2.840548 z M 10.12133,23.295499 c -0.6476713,0 -1.2251273,-0.416173 -1.4369942,-1.035617 -0.03034,-0.08863 -0.094685,-0.161518 -0.1788493,-0.202567 -0.084164,-0.0411 -0.1812446,-0.04692 -0.2697299,-0.0163 -0.2438982,0.08445 -0.4944188,0.12728 -0.7446106,0.12728 -1.1399295,0 -2.1099333,-0.852399 -2.2563286,-1.982794 -0.019585,-0.15109 -0.1340431,-0.272452 -0.283726,-0.30082 C 4.2321716,19.748383 3.7103712,19.1187 3.7103712,18.387475 c 0,-0.287295 0.083648,-0.56515 0.2426771,-0.812008 0.047202,0.02348 0.100227,0.03706 0.1565402,0.03706 0.5549588,0 1.085589,-0.149965 1.5468022,-0.430873 0.1457848,1.090098 1.0811742,1.933809 2.2105362,1.933809 1.2301056,0 2.2309201,-1.000814 2.2309201,-2.23092 0,-0.194536 -0.1577147,-0.352251 -0.3522509,-0.352251 -0.1945362,0 -0.3522505,0.157715 -0.3522505,0.352251 0,0.841691 -0.6847749,1.526419 -1.5264187,1.526419 -0.8416438,0 -1.5264188,-0.684728 -1.5264188,-1.526419 0,-0.102998 0.010286,-0.205855 0.030528,-0.30566 0.025973,-0.128031 -0.021229,-0.253714 -0.1126262,-0.334309 -0.00737,-0.0088 -0.01517,-0.01728 -0.023483,-0.02546 -0.1389745,-0.136156 -0.3620195,-0.133902 -0.4981291,0.0051 -0.4320939,0.44097 -1.0099726,0.683835 -1.6272093,0.683835 -0.0542,0 -0.1053464,0.01259 -0.1511859,0.03447 -0.044102,-0.02945 -0.094638,-0.04964 -0.1490255,-0.05683 -1.1274833,-0.148697 -1.977675,-1.118325 -1.977675,-2.25553 0,-0.922286 0.5503561,-1.747679 1.4021447,-2.102888 0.086231,-0.03598 0.1546145,-0.104689 0.1901683,-0.191108 0.035554,-0.08642 0.035319,-0.183358 -6.575e-4,-0.269589 -0.058849,-0.141182 -0.08872,-0.289973 -0.08872,-0.442286 0,-0.218301 0.063922,-0.432892 0.1848141,-0.620571 C 3.5997647,10.87902 3.5933777,10.717314 3.5034357,10.59938 3.1471932,10.132086 2.9589036,9.5770332 2.9589036,8.9941291 c 0,-0.965683 0.5262622,-1.8561722 1.3734011,-2.3239608 0.00216,-0.00117 0.0039,-0.00282 0.00601,-0.00399 0.3885558,-0.213041 0.8276947,-0.3256673 1.2741604,-0.3256673 0.7612368,0 1.4868728,0.3277339 1.9909197,0.8991781 0.069605,0.078951 0.1667319,0.1192485 0.2642818,0.1192485 0.082802,0 0.1658865,-0.029025 0.2328611,-0.088063 C 8.246418,7.1421839 8.2604141,6.9196086 8.1317253,6.773683 7.494105,6.0506771 6.5758584,5.6360079 5.6125238,5.6360079 c -0.3905283,0 -0.7766888,0.06843 -1.140587,0.1996086 0.046732,-0.3510763 0.2539961,-0.6585675 0.5741683,-0.8415968 0.1181213,-0.067538 0.1868336,-0.1970255 0.176407,-0.3326654 -0.00474,-0.062043 -0.00921,-0.1206106 -0.00921,-0.1760313 0,-1.081409 0.7684696,-2.0205087 1.8272406,-2.2328923 0.111546,-0.022356 0.2054325,-0.097268 0.2520705,-0.2010645 0.3674207,-0.8181605 1.1828101,-1.346865 2.0772445,-1.346865 1.2560313,0 2.2778873,1.0218552 2.2778873,2.2778864 v 6.862309 C 11.171741,9.3362347 10.495373,9.0176124 9.7455961,9.0176124 c -0.4349589,0 -0.8573307,0.1068494 -1.2356008,0.3109668 C 8.206872,9.1266222 7.8533065,9.0176124 7.491193,9.0176124 c -0.1945362,0 -0.3522505,0.1577143 -0.3522505,0.3522505 0,0.1945362 0.1577143,0.3522505 0.3522505,0.3522505 0.276775,0 0.5469746,0.1048297 0.7608141,0.2952326 0.1202818,0.107085 0.297816,0.11892 0.4312485,0.02889 C 8.99751,9.834223 9.3648368,9.7221604 9.7455961,9.7221604 c 1.0488609,0 1.9021529,0.8532916 1.9021529,1.9021526 v 10.144814 c 0,0.841644 -0.684775,1.526372 -1.526419,1.526372 z m 10.069338,-6.409832 c -0.05443,0.0072 -0.104924,0.02738 -0.149025,0.05683 -0.04589,-0.02189 -0.09699,-0.03447 -0.151186,-0.03447 -0.617284,0 -1.195163,-0.242865 -1.62721,-0.683835 -0.136109,-0.138928 -0.359154,-0.141276 -0.498129,-0.0051 -0.0083,0.0081 -0.01606,0.01663 -0.02339,0.02536 -0.09149,0.08059 -0.13874,0.206372 -0.112767,0.33445 0.02029,0.0998 0.03053,0.202615 0.03053,0.30566 0,0.841691 -0.684775,1.526419 -1.526419,1.526419 -0.194536,0 -0.35225,0.157714 -0.35225,0.35225 0,0.194536 0.157714,0.352251 0.35225,0.352251 1.129362,0 2.064752,-0.843711 2.210536,-1.933809 0.461214,0.280861 0.991844,0.430873 1.546803,0.430873 0.05631,0 0.109338,-0.01357 0.15654,-0.03706 0.159029,0.246811 0.242677,0.524666 0.242677,0.812008 0,0.731225 -0.5218,1.360908 -1.240767,1.497159 -0.149683,0.02837 -0.264141,0.14973 -0.283726,0.300822 -0.146395,1.130395 -1.116399,1.982794 -2.256329,1.982794 -0.250192,0 -0.500712,-0.04283 -0.74461,-0.12728 -0.08849,-0.03062 -0.185566,-0.0248 -0.26973,0.0163 -0.08417,0.04105 -0.148509,0.113988 -0.17885,0.202567 -0.21182,0.619444 -0.789275,1.035617 -1.436947,1.035617 -0.841644,0 -1.526418,-0.684728 -1.526418,-1.526419 v -7.238043 c 0.476007,0.508462 1.152375,0.827084 1.902152,0.827084 0.434959,0 0.857331,-0.106849 1.235601,-0.310967 0.303123,0.201957 0.656689,0.310967 1.018802,0.310967 0.194536,0 0.352251,-0.157714 0.352251,-0.35225 0,-0.194536 -0.157715,-0.352251 -0.352251,-0.352251 -0.276775,0 -0.546974,-0.104829 -0.760814,-0.295233 -0.120282,-0.107037 -0.297769,-0.118919 -0.431248,-0.02888 -0.314255,0.212008 -0.681582,0.32407 -1.062341,0.32407 -1.048861,0 -1.902152,-0.853291 -1.902152,-1.902152 V 7.0665205 c 0.228915,0.1815734 0.501416,0.3104501 0.799185,0.3677965 -4.69e-4,0.018928 -7.51e-4,0.037949 -7.51e-4,0.056877 0,1.2301056 1.000814,2.2309197 2.23092,2.2309197 1.230105,0 2.230919,-1.0008141 2.230919,-2.2309197 0,-0.1945362 -0.157714,-0.3522505 -0.35225,-0.3522505 -0.194536,0 -0.352251,0.1577143 -0.352251,0.3522505 0,0.8416908 -0.684775,1.5264187 -1.526418,1.5264187 -0.841644,0 -1.526419,-0.6847279 -1.526419,-1.5264187 0,-0.1037495 0.01052,-0.2076869 0.03128,-0.3088062 0.02156,-0.1052525 -0.0061,-0.214638 -0.07505,-0.2970176 -0.06899,-0.082333 -0.17218,-0.1287828 -0.279264,-0.1259178 -0.01832,5.166e-4 -0.034,0.00207 -0.04636,0.00362 C 12.859208,6.753863 12.35225,6.2412681 12.35225,5.6125245 V 2.9823876 c 0,-1.2560312 1.021855,-2.2778864 2.277886,-2.2778864 0.894434,0 1.709824,0.5287045 2.077291,1.3469119 0.04664,0.1037965 0.140478,0.1787084 0.252071,0.2010646 1.058724,0.2123366 1.827194,1.1514363 1.827194,2.2328453 0,0.055421 -0.0045,0.1139883 -0.0092,0.1760313 -0.01038,0.1356399 0.05829,0.2651742 0.176407,0.3326654 0.320172,0.1830293 0.527437,0.4905205 0.574168,0.8415968 -0.363945,-0.1311781 -0.750105,-0.1996086 -1.140587,-0.1996086 -0.194536,0 -0.35225,0.1577143 -0.35225,0.3522505 0,0.1945362 0.157714,0.3522504 0.35225,0.3522504 0.446513,0 0.885605,0.1125793 1.274161,0.3256673 0.0021,0.00122 0.0039,0.00282 0.006,0.00399 0.847185,0.4677886 1.373448,1.3582778 1.373448,2.3239608 0,0.5829041 -0.18829,1.1379571 -0.544533,1.6052291 -0.08994,0.117981 -0.09633,0.27964 -0.01601,0.404337 0.120892,0.187679 0.184814,0.402223 0.184814,0.620571 0,0.152313 -0.02987,0.301104 -0.08872,0.442286 -0.03598,0.08623 -0.03621,0.18317 -6.58e-4,0.269589 0.03555,0.08642 0.103937,0.155131 0.190168,0.191108 0.851789,0.355209 1.402145,1.180602 1.402145,2.102888 0,1.137205 -0.850192,2.106833 -1.977628,2.25553 z"
   id="path2-6"
   style="fill:#000000;fill-opacity:1;stroke:none;stroke-width:0.0469667;stroke-opacity:1" /><path
   id="path4511-2"
   style="fill:none;stroke:#5c2fd2;stroke-width:0.4;stroke-linecap:butt;stroke-linejoin:miter;stroke-miterlimit:4;stroke-dasharray:none;stroke-opacity:1"
   d="m 18.663543,12.07962 c 0,0 -0.464097,-0.291328 -0.618696,-0.281193 -0.154599,0.01014 -0.459738,0.437272 -0.652379,0.444289 -0.19264,0.007 -0.573443,-0.617464 -0.796527,-0.605402 -0.223083,0.01206 -0.483403,0.808561 -0.633567,0.805664 -0.150165,-0.0029 -0.466097,-1.075172 -0.699948,-1.076628 -0.233851,-0.0015 -0.328101,1.368292 -0.563549,1.391952 -0.235449,0.02366 -0.494673,-1.759878 -0.681172,-1.736557 -0.186497,0.02332 -0.202691,2.095038 -0.424735,2.092031 -0.222044,-0.003 -0.407363,-2.468847 -0.556011,-2.461593 -0.148649,0.0073 -0.377492,2.783448 -0.536633,2.781752 -0.159141,-0.0017 -0.301053,-3.146802 -0.500641,-3.15262 -0.199587,-0.0058 -0.3415,3.150923 -0.50064,3.15262 -0.159141,0.0017 -0.387986,-2.774498 -0.536633,-2.781752 -0.148648,-0.0073 -0.333967,2.458587 -0.556011,2.461593 -0.222045,0.003 -0.238239,-2.068709 -0.4247361,-2.092031 -0.1864978,-0.02332 -0.4457227,1.760217 -0.6811707,1.736557 -0.2354489,-0.02366 -0.3296989,-1.393407 -0.56355,-1.391952 -0.2338502,0.0015 -0.5497827,1.073732 -0.6999475,1.076628 -0.1501649,0.0029 -0.4104841,-0.793602 -0.6335671,-0.805664 -0.2230831,-0.01206 -0.6038879,0.61242 -0.7965281,0.605402 -0.1926401,-0.007 -0.4977792,-0.434154 -0.6523777,-0.444289 -0.154598,-0.01014 -0.6186965,0.281193 -0.6186965,0.281193"
   sodipodi:nodetypes="csssssssssszssssssssssc" /><path
   id="path40425-3"
   style="fill:none;stroke:#249bff;stroke-width:0.4;stroke-linecap:butt;stroke-linejoin:miter;stroke-miterlimit:4;stroke-dasharray:none;stroke-opacity:1"
   d="m 5.1973126,11.861547 c 0,0 0.613741,-0.151986 1.1805623,-0.151808 0.5668203,1.87e-4 1.5404181,0.266626 2.1924111,0.283319 0.9593251,0.08164 2.045626,-0.275578 2.884032,-0.283319 0.566821,1.87e-4 1.540419,0.266626 2.192412,0.283319 0.959325,0.08164 2.045625,-0.275578 2.884033,-0.283319 0.56682,1.87e-4 1.540418,0.266626 2.192411,0.283319"
   sodipodi:nodetypes="ccccccc" /><path
   id="path30783-88"
   style="fill:none;stroke:#4224ff;stroke-width:0.4;stroke-linecap:butt;stroke-linejoin:miter;stroke-miterlimit:4;stroke-dasharray:none;stroke-opacity:1"
   d="m 5.4274462,11.84656 c 0,0 0.2066884,-0.312281 0.6246388,-0.307039 0.4179508,0.0052 0.873831,0.635971 1.2867343,0.636454 0.5630771,-0.09904 0.9273163,-0.614322 1.3491827,-0.636454 0.4454203,-0.01416 0.8738316,0.635971 1.2867344,0.636454 0.6398616,-0.07489 0.8200866,-0.630162 1.3491836,-0.636454 0.41795,0.0052 0.873831,0.635971 1.286734,0.636454 0.639862,-0.07489 0.820086,-0.630162 1.349183,-0.636454 0.41795,0.0052 0.873831,0.635971 1.286734,0.636454 0.639862,-0.07489 0.820087,-0.630162 1.349183,-0.636454 0.417951,0.0052 0.873832,0.635971 1.286735,0.636454 0.412902,4.89e-4 0.692044,-0.396508 0.692044,-0.396508"
   sodipodi:nodetypes="csccccccccsc" /><circle
   style="fill:#4279ff;fill-opacity:1;stroke:#000000;stroke-width:0.33398;stroke-miterlimit:4;stroke-dasharray:none;stroke-opacity:1"
   id="path20939"
   cx="5.0408888"
   cy="11.923447"
   r="0.50571954" /><circle
   style="fill:#4279ff;fill-opacity:1;stroke:#000000;stroke-width:0.33398;stroke-miterlimit:4;stroke-dasharray:none;stroke-opacity:1"
   id="path20939-2"
   cx="18.812584"
   cy="11.923447"
   r="0.50571954" /></svg>
